# xmcd
#
# Track frame offsets:
#	150
#	21693
#	33458
#	47695
#	62495
#	76582
#	97739
#	111093
#	127673
#	142032
#	159602
#	176224
#	194974
#	210804
#	228251
#	247213
#	263688
#	284078
#	299270
#	313147
#
# Disc length: 4387 seconds
#
# Revision: 1
# Processed by: cddbd v1.5.2PL0 Copyright (c) Steve Scherf et al.
# Submitted via: audiograbber 1.83.01
#
DISCID=26112114
DTITLE=Lorrie Morgan - Potpouri Vol.1
DYEAR=1997
DGENRE=Country
TTITLE0=Sad Cafe
TTITLE1=Eight Days A Week
TTITLE2=Trainwreck Of Emotion
TTITLE3=Out Of Your Shoes
TTITLE4=We Both Walk
TTITLE5=Something In Red
TTITLE6=Except For Mondays
TTITLE7=A Picture Of Me Without You
TTITLE8=Tears On My Pillow
TTITLE9=My Night To Howl
TTITLE10=If You Came Back From Heaven
TTITLE11=Don't Touch Me
TTITLE12=A Good Year For The Roses (With George Jones)
TTITLE13=Half Enough
TTITLE14=Guess You Had To Be There
TTITLE15=Watch Me
TTITLE16=It's A Heartache
TTITLE17=I Didn't Know My Own Strength
TTITLE18=Standing Tall
TTITLE19=Till A Tear Becomes A Rose (With Keith Whitley)
EXTD=
EXTT0=
EXTT1=
EXTT2=
EXTT3=
EXTT4=
EXTT5=
EXTT6=
EXTT7=
EXTT8=
EXTT9=
EXTT10=
EXTT11=
EXTT12=
EXTT13=
EXTT14=
EXTT15=
EXTT16=
EXTT17=
EXTT18=
EXTT19=
PLAYORDER=
